<?xml version="1.0" encoding="utf-8"?>
<!-- Generator: Adobe Illustrator 26.0.0, SVG Export Plug-In . SVG Version: 6.00 Build 0)  -->
<svg version="1.1" id="Capa_1" xmlns="http://www.w3.org/2000/svg" xmlns:xlink="http://www.w3.org/1999/xlink" x="0px" y="0px"
	 viewBox="0 0 553.8 72.4" style="enable-background:new 0 0 553.8 72.4;" xml:space="preserve">
<style type="text/css">
	.st0{fill:#F3AA20;}
	.st1{fill:#010202;}
	.st2{fill:#831E62;}
	.st3{fill:#346D6D;}
</style>
<g>
	<g>
		<path class="st3" d="M23.1,21c2.8-1.7,6-2.5,9.4-2.5v17h-4.4c-4,0-7,0.9-9,2.6c-2,1.7-3,4.7-3,9.1v24.4H0V19.1h16.1v8.7
			C18,25,20.3,22.7,23.1,21z"/>
		<path class="st3" d="M45.6,32.3c2.8-3.9,6.2-6.9,10.3-9c4.1-2.1,8.6-3.2,13.4-3.2c5.8,0,10.5,1.5,14,4.5c3.5,3,5.5,6.9,6.1,11.7
			l2.7-15.5H94l-9,50.8h-1.8L86,56c-2.2,4.7-5.6,8.6-10.2,11.6c-4.6,3-9.8,4.6-15.6,4.6c-6.4,0-11.4-1.8-15.1-5.4
			c-3.7-3.6-5.5-8.5-5.5-14.7c0-1.9,0.2-4,0.6-6C41,40.8,42.9,36.2,45.6,32.3z M88.2,40.8c0-5.8-1.7-10.5-5.2-13.9
			c-3.4-3.4-8.1-5.1-13.9-5.1c-7,0-13,2.2-17.9,6.5c-4.9,4.4-8,10.3-9.3,17.8c-0.4,2.1-0.6,4-0.6,5.8c0,5.8,1.7,10.4,5,13.6
			c3.4,3.3,8,4.9,14.1,4.9c4.4,0,8.5-1,12.4-3.1c3.9-2,7.1-4.9,9.7-8.6c2.6-3.7,4.3-7.9,5.2-12.7C88.1,44.6,88.2,42.8,88.2,40.8z"/>
		<path class="st3" d="M145.1,24.8c3.9,3.8,5.8,9.3,5.8,16.4v30.4h-8.5V42.4c0-5.1-1.3-9.1-3.9-11.8s-6.1-4.1-10.5-4.1
			c-4.5,0-8.1,1.4-10.8,4.2s-4,6.9-4,12.3v28.5h-8.6V20h8.6v7.3c1.7-2.6,4-4.7,6.9-6.1c2.9-1.4,6.1-2.2,9.6-2.2
			C136.1,19.1,141.2,21,145.1,24.8z"/>
		<path class="st3" d="M164.4,31.6c2.2-4,5.1-7.1,8.8-9.4c3.7-2.2,7.9-3.3,12.5-3.3c3.4,0,6.7,0.7,10,2.2c3.3,1.5,5.9,3.4,7.9,5.9V2
			h10.8v69.6h-10.8v-7.8c-1.8,2.5-4.2,4.6-7.3,6.2c-3.1,1.6-6.7,2.4-10.7,2.4c-4.5,0-8.6-1.1-12.4-3.4c-3.7-2.3-6.7-5.5-8.8-9.6
			c-2.2-4.1-3.2-8.8-3.2-14C161.2,40.2,162.3,35.6,164.4,31.6z M201.4,36.3c-1.5-2.6-3.4-4.6-5.8-6c-2.4-1.4-5-2.1-7.7-2.1
			c-2.8,0-5.3,0.7-7.7,2c-2.4,1.3-4.3,3.3-5.8,5.9c-1.5,2.6-2.2,5.7-2.2,9.3c0,3.6,0.7,6.7,2.2,9.4c1.5,2.7,3.4,4.7,5.8,6.2
			c2.4,1.4,5,2.1,7.7,2.1c2.8,0,5.3-0.7,7.7-2.1c2.4-1.4,4.3-3.4,5.8-6.1c1.5-2.7,2.2-5.8,2.2-9.4C203.6,42,202.9,38.9,201.4,36.3z"
			/>
		<path class="st3" d="M235.6,69.7c-3.3-1.7-5.8-4.2-7.6-7.3c-1.8-3.2-2.7-6.9-2.7-11.1c0-5.8,1.3-11.1,4-15.9
			c2.6-4.9,6.3-8.7,11-11.6c4.7-2.9,9.9-4.3,15.7-4.3c4.3,0,8,0.9,11.3,2.6c3.3,1.7,5.8,4.2,7.6,7.3c1.8,3.2,2.7,6.9,2.7,11.1
			c0,5.8-1.3,11.2-4,16c-2.7,4.8-6.4,8.7-11.1,11.5c-4.7,2.9-9.9,4.3-15.7,4.3C242.6,72.3,238.8,71.5,235.6,69.7z M259.6,63.2
			c3.5-2.4,6.3-5.5,8.3-9.5c2-3.9,3-8.2,3-12.8c0-5.1-1.5-9.1-4.5-11.8c-3-2.7-6.8-4-11.3-4c-4.5,0-8.4,1.2-11.9,3.6
			c-3.5,2.4-6.2,5.5-8.1,9.5c-1.9,3.9-2.9,8.2-2.9,12.8c0,5.1,1.5,9,4.4,11.7c2.9,2.7,6.6,4.1,11.1,4.1
			C252.1,66.8,256.1,65.6,259.6,63.2z"/>
		<path class="st3" d="M362.4,5.5v66h-16.1V32l-14.8,39.6h-13l-14.9-39.7v39.7h-16.1v-66h19l18.5,45.7l18.3-45.7H362.4z"/>
		<path class="st3" d="M383.7,68.9c-4.3-2.2-7.6-5.3-10-9.5c-2.4-4.1-3.6-8.9-3.6-14.4s1.2-10.3,3.6-14.4c2.4-4.1,5.7-7.3,10-9.5
			c4.3-2.2,9.1-3.3,14.4-3.3s10.1,1.1,14.4,3.3c4.3,2.2,7.6,5.3,10,9.5c2.4,4.1,3.6,8.9,3.6,14.4s-1.2,10.3-3.6,14.4
			c-2.4,4.1-5.8,7.3-10,9.5c-4.3,2.2-9.1,3.3-14.4,3.3S388,71.1,383.7,68.9z M403,51.9c1.3-1.5,2-3.8,2-6.8c0-3-0.7-5.3-2-6.8
			c-1.3-1.5-2.9-2.3-4.9-2.3c-1.9,0-3.6,0.8-4.9,2.3c-1.3,1.5-2,3.8-2,6.8c0,3,0.6,5.3,1.9,6.8c1.3,1.5,2.9,2.3,4.9,2.3
			C400,54.2,401.7,53.4,403,51.9z"/>
		<path class="st3" d="M452.2,68.7l20.3-48h2l-21.6,50.8h-1.4l-21.6-50.8h2.1L452.2,68.7z"/>
		<path class="st3" d="M496.5,20l-9.1,51.5h-8.6L488,20H496.5z M490.4,10.3c-0.9-0.9-1.4-2.1-1.4-3.4c0-1.9,0.7-3.5,2.1-4.8
			s3-2,4.8-2c1.4,0,2.6,0.4,3.5,1.3c0.9,0.9,1.3,2,1.3,3.5c0,1.9-0.7,3.5-2.1,4.8c-1.4,1.3-3,2-4.8,2
			C492.4,11.7,491.3,11.2,490.4,10.3z"/>
		<path class="st3" d="M553.5,49h-41.2c0.3,5.1,2.1,9,5.2,11.9c3.2,2.9,7,4.3,11.5,4.3c3.7,0,6.8-0.9,9.3-2.6c2.5-1.7,4.2-4,5.2-6.9
			h9.2c-1.4,5-4.1,9-8.3,12.1c-4.1,3.1-9.3,4.7-15.4,4.7c-4.9,0-9.3-1.1-13.1-3.3c-3.9-2.2-6.9-5.3-9.1-9.4c-2.2-4-3.3-8.7-3.3-14.1
			c0-5.3,1.1-10,3.2-14c2.1-4,5.1-7.1,9-9.3c3.9-2.2,8.3-3.2,13.3-3.2c4.9,0,9.2,1.1,13,3.2s6.7,5.1,8.7,8.8c2,3.7,3.1,7.9,3.1,12.6
			C553.8,45.5,553.7,47.2,553.5,49z M542.8,33.6c-1.4-2.4-3.4-4.1-5.9-5.4c-2.5-1.2-5.2-1.8-8.2-1.8c-4.3,0-8,1.4-11,4.1
			c-3,2.8-4.8,6.6-5.2,11.5H545C545,38.8,544.3,36,542.8,33.6z"/>
	</g>
</g>
</svg>
