<?xml version="1.0" encoding="utf-8"?>
<!-- Generator: Adobe Illustrator 26.0.0, SVG Export Plug-In . SVG Version: 6.00 Build 0)  -->
<svg version="1.1" id="Capa_1" xmlns="http://www.w3.org/2000/svg" xmlns:xlink="http://www.w3.org/1999/xlink" x="0px" y="0px"
	 viewBox="0 0 69.4 69.4" style="enable-background:new 0 0 69.4 69.4;" xml:space="preserve">
<style type="text/css">
	.st0{fill:#FFFFFF;}
</style>
<path class="st0" d="M12.1,53.8H6.9V15.6H34l-2.8,2.8c-0.7,0.7-1,1.4-1,2.4c0,2.1,1.4,3.5,3.5,3.5c1,0,1.7-0.3,2.4-1l8.7-8.7
	c1.4-1.4,1.4-3.5,0-4.9L36.1,1c-1.4-1.4-3.5-1.4-4.9,0s-1.4,3.5,0,4.9L34,8.7H3.5C1.4,8.7,0,10.1,0,12.1v45.1c0,2.1,1.4,3.5,3.5,3.5
	h8.7c2.1,0,3.5-1.4,3.5-3.5C15.6,55.2,14.2,53.8,12.1,53.8z M65.9,8.7h-8.7c-2.1,0-3.5,1.4-3.5,3.5s1.4,3.5,3.5,3.5h5.2v38.2H33.3
	l2.8-2.8c1.4-1.4,1.4-3.5,0-4.9s-3.5-1.4-4.9,0l-8.7,8.7c-1.4,1.4-1.4,3.5,0,4.9l8.7,8.7c0.7,0.7,1.4,1,2.4,1s1.7-0.3,2.4-1
	c1.4-1.4,1.4-3.5,0-4.9l-2.8-2.8h32.6c2.1,0,3.5-1.4,3.5-3.5V12.1C69.4,10.1,68,8.7,65.9,8.7z"/>
</svg>
