<?xml version="1.0" encoding="utf-8"?>
<!-- Generator: Adobe Illustrator 27.0.0, SVG Export Plug-In . SVG Version: 6.00 Build 0)  -->
<svg version="1.1" id="Capa_1" xmlns="http://www.w3.org/2000/svg" xmlns:xlink="http://www.w3.org/1999/xlink" x="0px" y="0px"
	 viewBox="0 0 97.1 94.3" style="enable-background:new 0 0 97.1 94.3;" xml:space="preserve">
<style type="text/css">
	.st0{fill:#FFFFFF;}
</style>
<g>
	<path class="st0" d="M18.5,68.4h-3.6V25.9h24.5c-0.6,1.1-0.9,2.3-0.9,3.6c0,4.3,3.1,7.4,7.4,7.4c2.1,0,3.7-0.7,5.2-2.2l11-11
		c1.4-1.4,2.2-3.3,2.2-5.2c0-1.9-0.8-3.8-2.2-5.2l-11-11c-2.9-2.9-7.5-2.9-10.4,0c-1.4,1.4-2.2,3.3-2.2,5.2c0,1.3,0.3,2.5,1,3.6h-32
		C3.1,11,0,14.1,0,18.4v57.4c0,4.3,3.1,7.4,7.4,7.4h11c4.3,0,7.4-3.1,7.4-7.4C25.9,71.6,22.8,68.4,18.5,68.4z"/>
	<path class="st0" d="M89.6,11H75c-4.3,0-7.4,3.1-7.4,7.4s3.1,7.4,7.4,7.4h7.2v42.6H55c0.6-1.1,1-2.3,1-3.6c0-1.9-0.8-3.8-2.2-5.2
		s-3.3-2.2-5.2-2.2s-3.8,0.8-5.2,2.2l-11,11c-2.9,2.9-2.9,7.5,0,10.4l11,11c1.5,1.5,3.2,2.2,5.2,2.2c2.1,0,3.7-0.7,5.2-2.2
		c2.4-2.4,2.8-6,1.2-8.8h34.6c4.3,0,7.4-3.1,7.4-7.4V18.4C97.1,14.1,93.9,11,89.6,11z"/>
</g>
</svg>
